<svg version="1.1" xmlns="http://www.w3.org/2000/svg" xmlns:xlink="http://www.w3.org/1999/xlink" width="324.31682" height="204.09794" viewBox="0,0,324.31682,204.09794"><g transform="translate(-307.16361,-167.1509)"><g data-paper-data="{&quot;isPaintingLayer&quot;:true}" fill="#986e3b" fill-rule="nonzero" stroke="none" stroke-width="0.5" stroke-linecap="butt" stroke-linejoin="miter" stroke-miterlimit="10" stroke-dasharray="" stroke-dashoffset="0" style="mix-blend-mode: normal"><path d="M631.48043,276.00601c0,3.75 -3.75,3.75 -3.75,3.75c-7.5,0 -16.55405,0 -24.05405,0c-10.02376,0 -20.30994,0.64863 -30.3093,-0.01278c-4.22714,-0.2796 -8.35957,-1.38031 -12.53831,-2.07677c-1.5087,-0.25145 -3.00995,-0.51441 -4.5046,-0.78967c-0.84104,7.23705 -3.18821,14.74003 -4.70896,21.84828c-2.03833,9.5275 -3.64904,18.67919 -7.39193,27.68836c-2.87662,6.92405 -5.69773,13.87879 -8.65385,20.76923c-1.13208,2.63878 -1.62736,5.68147 -3.46831,7.88504c-0.47071,0.56343 -12.34405,8.17642 -13.44187,8.88572c-2.09985,1.3567 -4.18077,2.74315 -6.29954,4.07011c-1.75452,1.09884 -3.28836,2.80315 -5.31892,3.20641c-0.84696,0.16821 -14.70557,-0.83865 -16.16103,-0.96058c-2.40057,-0.20111 -4.98578,0.26908 -7.19344,-0.69499c-2.64297,-1.15418 -4.52481,-3.57744 -6.76088,-5.39883c-3.87668,-3.15774 -7.68221,-6.40184 -11.52332,-9.60277c-24.11463,-20.09552 -44.23644,-44.83851 -64.45692,-68.73544c-6.99357,-8.26512 -14.25902,-16.5648 -21.12184,-25.13608c-7.36304,3.28172 -14.73403,6.54556 -22.12694,9.75987c-8.44753,3.67284 -16.50425,6.81923 -25.32819,9.41451c-0.67922,0.19977 -14.52651,4.28492 -14.91409,4.34658c-2.15313,0.34256 -4.36035,0.02553 -6.54053,0.03829c0,0 -3.75,0 -3.75,-3.75c0,-3.75 3.75,-3.75 3.75,-3.75c6.98323,0.04887 12.65156,-2.11341 19.33836,-4.08012c8.53746,-2.51102 16.27881,-5.54287 24.45399,-9.0973c6.80022,-2.95662 13.58192,-5.9551 20.35595,-8.97084c-3.77714,-4.95847 -7.37253,-10.02296 -10.66179,-15.23719c-2.66768,-4.22889 -5.35139,-8.44773 -7.99811,-12.68977c-1.32238,-2.11945 -3.05272,-4.04038 -3.93807,-6.37638c-0.17426,-0.45978 -2.71768,-14.56497 -2.87809,-15.4472c-1.09807,-6.03938 -3.00059,-12.4729 -3.36806,-18.60903c-0.01999,-0.33374 -0.01515,-14.79765 -0.01515,-15.33677v-0.01502c0,0 0,-3.75 3.75,-3.75c3.75,0 3.75,3.75 3.75,3.75v0.01502c0,4.88775 -0.28824,9.78312 -0.01515,14.66323c0.3294,5.88653 2.22363,12.14523 3.27739,17.94093c0.85193,4.68561 0.80958,9.61221 2.48848,14.06889c0.71314,1.89304 2.2063,3.39137 3.29354,5.09727c2.68732,4.21643 5.33377,8.45878 7.99811,12.68977c3.47678,5.52113 7.31136,10.86997 11.3455,16.10096c14.58985,-6.51854 29.16145,-13.07774 43.82334,-19.43139c12.66115,-5.4865 25.33029,-12.1335 38.37389,-16.62123c18.07472,-6.21871 36.85377,-10.9996 55.27016,-16.11527c7.56638,-2.10177 13.14123,-3.80949 21.07792,-3.62966c2.0371,0.04616 4.3424,-0.67241 6.10259,0.35404c2.61962,1.52761 4.12959,4.4447 6.09163,6.75693c1.18796,1.39999 2.86953,2.5997 3.35131,4.37145c0.7679,2.82394 0.14932,5.85106 0.22398,8.77659c0,12.5 0,25 0,37.5c0,5.14887 0.36402,10.57816 0.33059,15.88483c1.76438,0.33279 3.53901,0.64744 5.32581,0.94524c3.97534,0.66256 7.90208,1.74128 11.92392,2.00027c9.79619,0.63083 19.87106,-0.01278 29.6907,-0.01278c7.5,0 15,0 22.5,0h1.55405c0,0 3.75,0 3.75,3.75zM521.223,267.47192c-3.31806,-1.20535 -6.32044,-3.14668 -9.47795,-4.72544c-8.94427,-4.47214 -17.88854,-8.94427 -26.83282,-13.41641c0,0 -3.3541,-1.67705 -1.67705,-5.03115c1.67705,-3.3541 5.03115,-1.67705 5.03115,-1.67705c8.94427,4.47214 17.88854,8.94427 26.83282,13.41641c2.97797,1.48898 5.7942,3.35456 8.92849,4.47778c8.38043,3.00326 16.71412,5.37667 25.22746,7.27143c-0.02518,-4.80907 -0.34975,-9.70213 -0.34975,-14.34905c0,-12.5 0,-25 0,-37.5c0.07466,-2.07447 0.67015,-4.19611 0.22398,-6.22341c-0.212,-0.96328 -1.44069,-1.35634 -2.06094,-2.12325c-1.24091,-1.53434 -1.88384,-3.65016 -3.51114,-4.76639c-0.80892,-0.55487 -1.941,0.32243 -2.92143,0.35404c-2.32999,0.07512 -4.67729,-0.29811 -6.99353,-0.03436c-6.31562,0.71917 -13.18571,3.69842 -19.30345,5.39773c-15.82773,4.39643 -31.95158,8.60885 -47.49007,13.93074c-12.89881,4.41781 -25.43692,11.03012 -37.95287,16.4537c-14.0527,6.08934 -28.02234,12.36787 -42.00458,18.61846c6.45835,7.98028 13.24801,15.72833 19.77925,23.44707c19.93655,23.56138 39.75693,48.00503 63.53291,67.81834c3.84111,3.20092 7.7243,6.352 11.52332,9.60277c1.60888,1.37669 2.83259,3.33247 4.76244,4.20394c1.49704,0.67603 3.28489,0.07741 4.92484,0.1706c2.49597,0.14183 4.99003,0.32136 7.48094,0.53435c2.0972,0.17933 4.20677,0.99561 6.28179,0.64248c1.26044,-0.2145 2.05084,-1.5292 3.11276,-2.24126c2.0764,-1.39232 4.19969,-2.71341 6.29954,-4.07011c2.09985,-1.3567 4.18336,-2.73903 6.29954,-4.07011c1.80292,-1.13404 4.09118,-1.69005 5.45675,-3.32461c1.36558,-1.63456 1.50568,-3.98522 2.30092,-5.96112c2.79916,-6.9549 5.76285,-13.85193 8.65385,-20.76923c3.57378,-8.55099 5.04289,-17.31389 6.98097,-26.3728c1.50355,-7.02782 3.88944,-14.46896 4.64499,-21.61203c0.00498,-0.04711 0.0099,-0.09426 0.01475,-0.14143c-9.37727,-2.02341 -18.5443,-4.59813 -27.7179,-7.93064z"/></g></g></svg>